<svg width="40" height="310" viewBox="0 0 40 310" fill="none" xmlns="http://www.w3.org/2000/svg">
<path d="M35.5556 35.5556H4.44444V4.44444H20V0H4.44444C1.97778 0 0 2 0 4.44444V35.5556C0 38 1.97778 40 4.44444 40H35.5556C38 40 40 38 40 35.5556V20H35.5556V35.5556ZM24.4444 0V4.44444H32.4222L10.5778 26.2889L13.7111 29.4222L35.5556 7.57778V15.5556H40V0H24.4444Z" fill="#5D3C77"/>
<path d="M20 180H4C1.8 180 0.0200005 181.8 0.0200005 184L0 216C0 218.2 1.78 220 3.98 220H28C30.2 220 32 218.2 32 216V192L20 180ZM24 212H8V208H24V212ZM24 204H8V200H24V204ZM18 194V183L29 194H18Z" fill="#5D3C77"/>
<path d="M35.5556 125.556H4.44444V94.4444H20V90H4.44444C1.97778 90 0 92 0 94.4444V125.556C0 128 1.97778 130 4.44444 130H35.5556C38 130 40 128 40 125.556V110H35.5556V125.556ZM24.4444 90V94.4444H32.4222L10.5778 116.289L13.7111 119.422L35.5556 97.5778V105.556H40V90H24.4444Z" fill="#3D3C77"/>
<path d="M20 270H4C1.8 270 0.0200005 271.8 0.0200005 274L0 306C0 308.2 1.78 310 3.98 310H28C30.2 310 32 308.2 32 306V282L20 270ZM24 302H8V298H24V302ZM24 294H8V290H24V294ZM18 284V273L29 284H18Z" fill="#3D3C77"/>
</svg>
