<svg width="91" height="117" viewBox="0 0 91 117" fill="none" xmlns="http://www.w3.org/2000/svg">
<path d="M31.2727 32.1818H74.9091M74.9091 32.1818C98.1818 32.1818 37.3333 32.1818 4 32.1818M74.9091 32.1818H104M4 32.1818V14.9091C4 8.88416 8.88417 4 14.9091 4H93.0909C99.1158 4 104 8.88416 104 14.9091V32.1818M4 32.1818V61.2727M104 32.1818V61.2727M4 61.2727H31.2727H74.9091H104M4 61.2727V90.3636M104 61.2727V90.3636M4 90.3636V123.091C4 129.116 8.88417 134 14.9091 134H93.0909C99.1158 134 104 129.116 104 123.091V90.3636M4 90.3636H31.2727H74.9091H104" stroke="#113636" stroke-width="7" stroke-linecap="round" stroke-linejoin="round"/>
</svg>
