<svg width="115" height="87" viewBox="0 0 115 87" fill="none" xmlns="http://www.w3.org/2000/svg">
<path fill-rule="evenodd" clip-rule="evenodd" d="M49.5 49.5C47.8431 49.5 46.5 50.8431 46.5 52.5V97.5C46.5 99.1568 47.8431 100.5 49.5 100.5H94.5C96.1568 100.5 97.5 99.1568 97.5 97.5V52.5C97.5 50.8431 96.1568 49.5 94.5 49.5H49.5ZM55.5 55.5C53.8431 55.5 52.5 56.8431 52.5 58.5V91.5C52.5 93.1568 53.8431 94.5 55.5 94.5H88.5C90.1568 94.5 91.5 93.1569 91.5 91.5V58.5C91.5 56.8431 90.1569 55.5 88.5 55.5H55.5Z" fill="#A8FEFF"/>
<path d="M49.5 100C49.2239 100 49 100.224 49 100.5C49 100.776 49.2239 101 49.5 101V100ZM95.25 101C95.5261 101 95.75 100.776 95.75 100.5C95.75 100.224 95.5261 100 95.25 100V101ZM49.5 49C49.2239 49 49 49.2239 49 49.5C49 49.7761 49.2239 50 49.5 50V49ZM95.25 50C95.5261 50 95.75 49.7761 95.75 49.5C95.75 49.2239 95.5261 49 95.25 49V50ZM62 67.5C62 66.1193 63.1193 65 64.5 65V64C62.567 64 61 65.567 61 67.5H62ZM64.5 65H79.5V64H64.5V65ZM79.5 65C80.8807 65 82 66.1193 82 67.5H83C83 65.567 81.433 64 79.5 64V65ZM82 67.5V82.5H83V67.5H82ZM82 82.5C82 83.8807 80.8807 85 79.5 85V86C81.433 86 83 84.433 83 82.5H82ZM79.5 85H64.5V86H79.5V85ZM64.5 85C63.1193 85 62 83.8807 62 82.5H61C61 84.433 62.567 86 64.5 86V85ZM62 82.5V67.5H61V82.5H62ZM62.75 49.5V40.5H61.75V49.5H62.75ZM65.25 38H66.75V37H65.25V38ZM70.25 34.5V13.5H69.25V34.5H70.25ZM66.75 10H30.75V11H66.75V10ZM82.25 49.5V47.25H81.25V49.5H82.25ZM84.75 44.75H92.25V43.75H84.75V44.75ZM95.75 41.25V23.25H94.75V41.25H95.75ZM98.25 20.75H114.75V19.75H98.25V20.75ZM61.75 100.5V122.25H62.75V100.5H61.75ZM65.25 125.75H71.25V124.75H65.25V125.75ZM73.75 128.25V135H74.75V128.25H73.75ZM71.25 137.5H33.75V138.5H71.25V137.5ZM31.25 135V125.25H30.25V135H31.25ZM27.75 121.75H12.75V122.75H27.75V121.75ZM81.25 100.5V108.75H82.25V100.5H81.25ZM84.75 112.25H95.25V111.25H84.75V112.25ZM97.75 114.75V122.25H98.75V114.75H97.75ZM101.25 125.75H119.25V124.75H101.25V125.75ZM97.5 85.25H104.25V84.25H97.5V85.25ZM106.75 87.75V93.75H107.75V87.75H106.75ZM110.25 97.25H128.25V96.25H110.25V97.25ZM130.75 99.75V138H131.75V99.75H130.75ZM97.5 65.75H114.75V64.75H97.5V65.75ZM118.25 62.25V50.25H117.25V62.25H118.25ZM120.75 47.75H139.5V46.75H120.75V47.75ZM46.5 64.75H35.25V65.75H46.5V64.75ZM32.75 62.25V59.25H31.75V62.25H32.75ZM29.25 55.75H12.75V56.75H29.25V55.75ZM10.25 53.25V42.75H9.25V53.25H10.25ZM46.5 84.25H27.75V85.25H46.5V84.25ZM24.25 87.75V96.75H25.25V87.75H24.25ZM21.75 99.25H7.5V100.25H21.75V99.25ZM5 96.75V82.5H4V96.75H5ZM118.25 17.25V4.5H117.25V17.25H118.25ZM49.5 101H62.25V100H49.5V101ZM62.25 101H81.75V100H62.25V101ZM81.75 101H95.25V100H81.75V101ZM49.5 50H62.25V49H49.5V50ZM62.25 50H81.75V49H62.25V50ZM81.75 50H95.25V49H81.75V50ZM7.5 99.25C6.11929 99.25 5 98.1307 5 96.75H4C4 98.683 5.567 100.25 7.5 100.25V99.25ZM24.25 96.75C24.25 98.1307 23.1307 99.25 21.75 99.25V100.25C23.683 100.25 25.25 98.683 25.25 96.75H24.25ZM27.75 84.25C25.817 84.25 24.25 85.817 24.25 87.75H25.25C25.25 86.3693 26.3693 85.25 27.75 85.25V84.25ZM32.75 59.25C32.75 57.317 31.183 55.75 29.25 55.75V56.75C30.6307 56.75 31.75 57.8693 31.75 59.25H32.75ZM114.75 65.75C116.683 65.75 118.25 64.183 118.25 62.25H117.25C117.25 63.6307 116.131 64.75 114.75 64.75V65.75ZM104.25 85.25C105.631 85.25 106.75 86.3693 106.75 87.75H107.75C107.75 85.817 106.183 84.25 104.25 84.25V85.25ZM97.75 122.25C97.75 124.183 99.317 125.75 101.25 125.75V124.75C99.8693 124.75 98.75 123.631 98.75 122.25H97.75ZM95.25 112.25C96.6307 112.25 97.75 113.369 97.75 114.75H98.75C98.75 112.817 97.183 111.25 95.25 111.25V112.25ZM81.25 108.75C81.25 110.683 82.817 112.25 84.75 112.25V111.25C83.3693 111.25 82.25 110.131 82.25 108.75H81.25ZM31.25 125.25C31.25 123.317 29.683 121.75 27.75 121.75V122.75C29.1307 122.75 30.25 123.869 30.25 125.25H31.25ZM12.75 55.75C11.3693 55.75 10.25 54.6307 10.25 53.25H9.25C9.25 55.183 10.817 56.75 12.75 56.75V55.75ZM61.75 122.25C61.75 124.183 63.317 125.75 65.25 125.75V124.75C63.8693 124.75 62.75 123.631 62.75 122.25H61.75ZM35.25 64.75C33.8693 64.75 32.75 63.6307 32.75 62.25H31.75C31.75 64.183 33.317 65.75 35.25 65.75V64.75ZM114.75 20.75C116.683 20.75 118.25 19.183 118.25 17.25H117.25C117.25 18.6307 116.131 19.75 114.75 19.75V20.75ZM95.75 23.25C95.75 21.8693 96.8693 20.75 98.25 20.75V19.75C96.317 19.75 94.75 21.317 94.75 23.25H95.75ZM33.75 137.5C32.3693 137.5 31.25 136.381 31.25 135H30.25C30.25 136.933 31.817 138.5 33.75 138.5V137.5ZM70.25 13.5C70.25 11.567 68.683 10 66.75 10V11C68.1307 11 69.25 12.1193 69.25 13.5H70.25ZM92.25 44.75C94.183 44.75 95.75 43.183 95.75 41.25H94.75C94.75 42.6307 93.6307 43.75 92.25 43.75V44.75ZM73.75 135C73.75 136.381 72.6307 137.5 71.25 137.5V138.5C73.183 138.5 74.75 136.933 74.75 135H73.75ZM128.25 97.25C129.631 97.25 130.75 98.3693 130.75 99.75H131.75C131.75 97.817 130.183 96.25 128.25 96.25V97.25ZM66.75 38C68.683 38 70.25 36.433 70.25 34.5H69.25C69.25 35.8807 68.1307 37 66.75 37V38ZM118.25 50.25C118.25 48.8693 119.369 47.75 120.75 47.75V46.75C118.817 46.75 117.25 48.317 117.25 50.25H118.25ZM82.25 47.25C82.25 45.8693 83.3693 44.75 84.75 44.75V43.75C82.817 43.75 81.25 45.317 81.25 47.25H82.25ZM71.25 125.75C72.6307 125.75 73.75 126.869 73.75 128.25H74.75C74.75 126.317 73.183 124.75 71.25 124.75V125.75ZM106.75 93.75C106.75 95.683 108.317 97.25 110.25 97.25V96.25C108.869 96.25 107.75 95.1307 107.75 93.75H106.75ZM62.75 40.5C62.75 39.1193 63.8693 38 65.25 38V37C63.317 37 61.75 38.567 61.75 40.5H62.75Z" fill="#00C6C9"/>
<path d="M95.25 120.75V115.75C95.25 115.198 94.8023 114.75 94.25 114.75H89.25M27.75 92.25V88.75C27.75 88.1977 28.1977 87.75 28.75 87.75H36M66.75 21.75V14.5C66.75 13.9477 66.3023 13.5 65.75 13.5H58.5M107.25 62.25H113.75C114.302 62.25 114.75 61.8023 114.75 61.25V53.25" stroke="#A8FEFF" stroke-linecap="round" stroke-linejoin="round"/>
<path d="M32.25 10.5C32.25 12.9853 30.2353 15 27.75 15C25.2647 15 23.25 12.9853 23.25 10.5C23.25 8.01472 25.2647 6.00001 27.75 6.00001C30.2353 6.00001 32.25 8.01472 32.25 10.5Z" fill="#A8FEFF"/>
<path d="M14.25 39C14.25 41.4853 12.2353 43.5 9.75 43.5C7.26472 43.5 5.25 41.4853 5.25 39C5.25 36.5147 7.26472 34.5 9.75 34.5C12.2353 34.5 14.25 36.5147 14.25 39Z" fill="#A8FEFF"/>
<path d="M122.25 4.5C122.25 6.98528 120.235 9 117.75 9C115.265 9 113.25 6.98528 113.25 4.5C113.25 2.01472 115.265 0 117.75 0C120.235 0 122.25 2.01472 122.25 4.5Z" fill="#A8FEFF"/>
<path d="M144 46.5C144 48.9853 141.985 51 139.5 51C137.015 51 135 48.9853 135 46.5C135 44.0147 137.015 42 139.5 42C141.985 42 144 44.0147 144 46.5Z" fill="#A8FEFF"/>
<path d="M135.75 139.5C135.75 141.985 133.735 144 131.25 144C128.765 144 126.75 141.985 126.75 139.5C126.75 137.015 128.765 135 131.25 135C133.735 135 135.75 137.015 135.75 139.5Z" fill="#A8FEFF"/>
<path d="M121.5 126C121.5 128.485 119.485 130.5 117 130.5C114.515 130.5 112.5 128.485 112.5 126C112.5 123.515 114.515 121.5 117 121.5C119.485 121.5 121.5 123.515 121.5 126Z" fill="#A8FEFF"/>
<path d="M15 122.25C15 124.735 12.9853 126.75 10.5 126.75C8.01472 126.75 6 124.735 6 122.25C6 119.765 8.01472 117.75 10.5 117.75C12.9853 117.75 15 119.765 15 122.25Z" fill="#A8FEFF"/>
<path d="M9 82.5C9 84.9853 6.98528 87 4.5 87C2.01472 87 0 84.9853 0 82.5C0 80.0147 2.01472 78 4.5 78C6.98528 78 9 80.0147 9 82.5Z" fill="#A8FEFF"/>
</svg>
