<svg width="138" height="114" viewBox="0 0 138 114" fill="none" xmlns="http://www.w3.org/2000/svg">
<path fill-rule="evenodd" clip-rule="evenodd" d="M9.45653 49.0763C46.3824 32.9882 71.0055 22.382 83.3257 17.2576C118.502 2.62641 125.812 0.0848199 130.576 0.000894828C131.624 -0.0175635 133.967 0.242121 135.484 1.47357C136.766 2.51337 137.118 3.918 137.287 4.90386C137.456 5.88971 137.666 8.13551 137.499 9.8903C135.593 29.9193 127.344 78.5244 123.148 100.957C121.373 110.449 117.876 113.632 114.492 113.944C107.136 114.62 101.55 109.082 94.4258 104.412C83.2775 97.1043 76.9794 92.5551 66.158 85.424C53.6521 77.1828 61.7592 72.6532 68.8863 65.2507C70.7515 63.3134 103.161 33.8343 103.788 31.1601C103.867 30.8256 103.94 29.5789 103.199 28.9206C102.458 28.2623 101.365 28.4875 100.577 28.6665C99.4584 28.9203 81.6488 40.6917 47.1478 63.9809C42.0926 67.4522 37.5137 69.1435 33.4113 69.0549C28.8886 68.9572 20.1888 66.4977 13.7214 64.3954C5.78894 61.8169 -0.515664 60.4536 0.0333252 56.0744C0.319273 53.7935 3.46034 51.4607 9.45653 49.0763Z" fill="white" fill-opacity="0.61"/>
</svg>
