<svg width="882" height="731" viewBox="0 0 882 731" fill="none" xmlns="http://www.w3.org/2000/svg">
<path fill-rule="evenodd" clip-rule="evenodd" d="M60.569 314.691C297.079 211.53 454.789 143.52 533.7 110.661C759.006 16.8413 805.823 0.543889 836.337 0.00573789C843.049 -0.112622 858.055 1.55255 867.775 9.44891C875.983 16.1165 878.241 25.1233 879.322 31.4449C880.402 37.7665 881.748 52.1671 880.678 63.4194C868.469 191.851 815.639 503.52 788.762 647.366C777.389 708.232 754.996 728.641 733.317 730.638C686.204 734.978 650.428 699.466 604.796 669.52C533.391 622.66 493.052 593.49 423.741 547.763C343.641 494.918 395.567 465.873 441.216 418.406C453.162 405.983 660.746 216.955 664.764 199.807C665.266 197.663 665.732 189.668 660.989 185.447C656.245 181.226 649.244 182.67 644.191 183.818C637.029 185.445 522.959 260.927 301.981 410.264C269.602 432.522 240.275 443.368 213.999 442.799C185.031 442.173 129.309 426.402 87.8857 412.921C37.0781 396.387 -3.30282 387.645 0.213447 359.565C2.04494 344.939 22.1634 329.981 60.569 314.691Z" fill="white" fill-opacity="0.1"/>
</svg>
