<svg width="42" height="59" viewBox="0 0 42 59" fill="none" xmlns="http://www.w3.org/2000/svg">
<path d="M38.814 11.774C38.814 16.6197 34.8567 20.5479 29.9753 20.5479H20.907V3H29.9753C34.8567 3 38.814 6.92824 38.814 11.774Z" stroke="white" stroke-width="5.08"/>
<path d="M3 11.774C3 16.6197 6.95721 20.5479 11.8387 20.5479H20.907V3H11.8387C6.95721 3 3 6.92824 3 11.774Z" stroke="white" stroke-width="5.08"/>
<path d="M3 29.3223C3 34.168 6.95721 38.0963 11.8387 38.0963H20.907V20.5483H11.8387C6.95721 20.5483 3 24.4766 3 29.3223Z" stroke="white" stroke-width="5.08"/>
<path d="M3 46.8699C3 51.7157 7.01424 55.6439 11.8957 55.6439C16.8406 55.6439 20.907 51.6646 20.907 46.756V38.0959H11.8387C6.95721 38.0959 3 42.0242 3 46.8699Z" stroke="white" stroke-width="5.08"/>
<path d="M20.907 29.3223C20.907 34.168 24.8642 38.0963 29.7457 38.0963H29.9753C34.8567 38.0963 38.814 34.168 38.814 29.3223C38.814 24.4766 34.8567 20.5483 29.9753 20.5483H29.7457C24.8642 20.5483 20.907 24.4766 20.907 29.3223Z" stroke="white" stroke-width="5.08"/>
</svg>
