<svg width="21" height="91" viewBox="0 0 21 91" fill="none" xmlns="http://www.w3.org/2000/svg">
<path d="M2.14288 6.07146H17.8572M4.50003 10.7857H15.5M4.50003 13.9286H15.5" stroke="white" stroke-width="2" stroke-linecap="round" stroke-linejoin="round"/>
<path d="M17.1072 1.14288H2.89288C1.92638 1.14288 1.14288 1.92639 1.14288 2.89288V4.94901V5.51023V16.384V17.1072C1.14288 18.0737 1.92638 18.8572 2.89288 18.8572H17.1072C18.0737 18.8572 18.8572 18.0737 18.8572 17.1072V9.50896V5.51023V2.89288C18.8572 1.92639 18.0737 1.14288 17.1072 1.14288Z" stroke="white" stroke-width="2" stroke-linecap="round" stroke-linejoin="round"/>
<path d="M0 86.6256V91H4.37439L17.2759 78.0985L12.9015 73.7241L0 86.6256ZM20.6588 74.7156C21.1137 74.2607 21.1137 73.5258 20.6588 73.0708L17.9292 70.3412C17.4742 69.8863 16.7393 69.8863 16.2844 70.3412L14.1497 72.4759L18.5241 76.8503L20.6588 74.7156Z" fill="white"/>
</svg>
